# xmcd
#
# Track frame offsets: 
#        150
#        14260
#        28037
#        39224
#        51468
#        63449
#        78401
#        86677
#        100479
#        116699
#        129164
#        139322
#
# Disc length: 2061 seconds
#
# Revision: 0
# Processed by: cddbd v1.5.2PL0 Copyright (c) Steve Scherf et al.
# Submitted via: ExactAudioCopyFreeDBPlugin 1.0
#
DISCID=9e080b0c
DTITLE=Frog and Henry - Frog and Henry 2017
DYEAR=2017
DGENRE=Blues
TTITLE0=Berlin Rags
TTITLE1=Thriller Rag
TTITLE2=So Sweet
TTITLE3=San
TTITLE4=L and N Rag
TTITLE5=White Birds
TTITLE6=Yearning
TTITLE7=Big Four
TTITLE8=Marsovia
TTITLE9=Mabel's Dream
TTITLE10=Griserie
TTITLE11=Hot Tempered Blues
EXTD=
EXTT0=
EXTT1=
EXTT2=
EXTT3=
EXTT4=
EXTT5=
EXTT6=
EXTT7=
EXTT8=
EXTT9=
EXTT10=
EXTT11=
PLAYORDER=
